<svg width="442" height="919" viewBox="0 0 442 919" fill="none" xmlns="http://www.w3.org/2000/svg">
<g opacity="0.05">
<path d="M550 150.696V-28.4525C550 -42.389 544.464 -55.7545 534.609 -65.6091C524.755 -75.4637 511.389 -81 497.453 -81H318.304C304.368 -81 291.002 -75.4637 281.147 -65.6091C271.293 -55.7545 265.757 -42.389 265.757 -28.4525V132.158C265.757 139.059 264.397 145.892 261.757 152.267C259.116 158.643 255.245 164.436 250.366 169.315C245.486 174.195 239.693 178.065 233.318 180.706C226.942 183.347 220.109 184.706 213.209 184.706H52.5972C38.6607 184.706 25.2951 190.242 15.4405 200.097C5.58588 209.951 0.0495605 223.317 0.0495605 237.253V416.403C0.0495605 430.339 5.58588 443.705 15.4405 453.56C25.2951 463.414 38.6607 468.95 52.5972 468.95H213.209C227.145 468.95 240.511 474.487 250.366 484.341C260.22 494.196 265.757 507.562 265.757 521.498V663.57C265.757 677.507 260.22 690.873 250.366 700.727C240.511 710.582 227.145 716.118 213.209 716.118H52.5972C38.6607 716.118 25.2951 721.654 15.4405 731.509C5.58588 741.364 0.0495605 754.729 0.0495605 768.666V947.814C0.0495605 961.75 5.58588 975.116 15.4405 984.971C25.2951 994.825 38.6607 1000.36 52.5972 1000.36H231.747C245.683 1000.36 259.049 994.825 268.903 984.971C278.758 975.116 284.294 961.75 284.294 947.814V787.204C284.294 780.303 285.653 773.47 288.294 767.095C290.935 760.719 294.805 754.927 299.685 750.047C304.564 745.168 310.357 741.297 316.733 738.656C323.108 736.015 329.941 734.656 336.842 734.656H497.453C511.389 734.656 524.755 729.12 534.609 719.265C544.464 709.411 550 696.045 550 682.109V502.96C550 489.024 544.464 475.658 534.609 465.804C524.755 455.949 511.389 450.413 497.453 450.413H336.842C329.941 450.413 323.108 449.054 316.733 446.413C310.357 443.772 304.564 439.901 299.685 435.022C294.805 430.142 290.935 424.35 288.294 417.974C285.653 411.599 284.294 404.766 284.294 397.865V255.791C284.294 241.855 289.83 228.489 299.685 218.634C309.54 208.78 322.905 203.243 336.842 203.243H497.453C511.389 203.243 524.755 197.707 534.609 187.853C544.464 177.998 550 164.632 550 150.696Z" fill="url(#paint0_linear)"/>
<path style="mix-blend-mode:multiply" opacity="0.6" d="M265.838 663.537V521.539C265.843 514.624 264.484 507.775 261.84 501.386C259.196 494.996 255.318 489.191 250.428 484.301C245.539 479.411 239.733 475.533 233.343 472.889C226.954 470.245 220.106 468.887 213.191 468.891H50.0596L296.424 222.341C288.608 231.7 284.342 243.515 284.376 255.708V397.893C284.369 404.784 285.722 411.609 288.356 417.976C290.99 424.344 294.854 430.13 299.727 435.002C304.599 439.875 310.385 443.739 316.753 446.373C323.121 449.007 329.945 450.36 336.836 450.354H497.372C498.488 450.323 499.604 450.385 500.709 450.539L250.451 700.797C260.301 690.898 265.833 677.502 265.838 663.537Z" fill="url(#paint1_linear)"/>
<path style="mix-blend-mode:multiply" opacity="0.6" d="M250.451 700.793L0.193251 951.051C0.0390261 950.009 -0.0230994 948.954 0.00763104 947.9V768.641C0.0369078 754.704 5.59903 741.349 15.4713 731.512C25.3436 721.674 38.7181 716.159 52.655 716.179H213.191C227.156 716.175 240.552 710.643 250.451 700.793Z" fill="url(#paint2_linear)"/>
</g>
<defs>
<linearGradient id="paint0_linear" x1="28.0731" y1="962.647" x2="533.224" y2="-66.1927" gradientUnits="userSpaceOnUse">
<stop stop-color="#4059D1"/>
<stop offset="1" stop-color="#11DF99"/>
</linearGradient>
<linearGradient id="paint1_linear" x1="473.196" y1="261.811" x2="94.735" y2="640.272" gradientUnits="userSpaceOnUse">
<stop offset="0.02703" stop-color="#4059D1"/>
<stop offset="1" stop-color="#4059D1" stop-opacity="0"/>
</linearGradient>
<linearGradient id="paint2_linear" x1="37537.9" y1="43159.2" x2="28829.7" y2="51874.1" gradientUnits="userSpaceOnUse">
<stop offset="0.02703" stop-color="#4059D1"/>
<stop offset="1" stop-color="#4059D1" stop-opacity="0"/>
</linearGradient>
</defs>
</svg>
