<svg width="689" height="350" viewBox="0 0 689 350" fill="none" xmlns="http://www.w3.org/2000/svg">
<g opacity="0.2">
<path opacity="0.5" d="M147.448 350L33.4405 350C24.5715 350 16.0659 346.477 9.79456 340.205C3.52324 333.934 1.42241e-05 325.428 1.38364e-05 316.56L8.85298e-06 202.552C8.4653e-06 193.683 3.52324 185.178 9.79455 178.906C16.0659 172.635 24.5715 169.112 33.4405 169.112L135.651 169.112C140.042 169.112 144.391 168.247 148.448 166.566C152.505 164.886 156.192 162.422 159.297 159.317C162.402 156.212 164.865 152.525 166.546 148.468C168.226 144.411 169.091 140.063 169.091 135.671L169.091 33.4602C169.091 24.5912 172.614 16.0855 178.886 9.81419C185.157 3.54288 193.663 0.0196449 202.532 0.0196445L316.54 0.0196395C325.409 0.0196391 333.914 3.54287 340.186 9.81418C346.457 16.0855 349.98 24.5912 349.98 33.4602L349.98 135.671C349.98 144.54 353.503 153.046 359.775 159.317C366.046 165.588 374.552 169.112 383.421 169.112L473.834 169.112C482.703 169.112 491.208 165.588 497.48 159.317C503.751 153.046 507.274 144.54 507.274 135.671L507.274 33.4602C507.274 24.5912 510.797 16.0855 517.069 9.81417C523.34 3.54286 531.846 0.0196301 540.715 0.0196297L654.722 0.0196247C663.591 0.0196243 672.097 3.54285 678.368 9.81417C684.639 16.0855 688.162 24.5912 688.162 33.4602L688.162 147.468C688.162 156.337 684.639 164.843 678.368 171.114C672.097 177.386 663.591 180.909 654.722 180.909L552.512 180.909C548.121 180.909 543.772 181.774 539.715 183.454C535.658 185.135 531.971 187.598 528.866 190.703C525.761 193.808 523.297 197.495 521.617 201.552C519.936 205.609 519.071 209.958 519.071 214.349L519.071 316.56C519.071 325.428 515.548 333.934 509.277 340.205C503.006 346.477 494.5 350 485.631 350L371.624 350C362.755 350 354.249 346.477 347.978 340.205C341.706 333.934 338.183 325.428 338.183 316.56L338.183 214.349C338.183 209.958 337.318 205.609 335.638 201.552C333.957 197.495 331.494 193.808 328.389 190.703C325.283 187.598 321.597 185.135 317.54 183.454C313.483 181.774 309.134 180.909 304.743 180.909L214.329 180.909C205.46 180.909 196.954 184.432 190.683 190.703C184.412 196.975 180.888 205.48 180.888 214.349L180.888 316.56C180.888 325.428 177.365 333.934 171.094 340.205C164.822 346.477 156.317 350 147.448 350Z" fill="#170772"/>
<path style="mix-blend-mode:multiply" opacity="0.2" d="M473.812 169.173L383.446 169.173C379.046 169.176 374.688 168.311 370.621 166.628C366.555 164.946 362.861 162.478 359.749 159.366C356.637 156.255 354.169 152.56 352.487 148.494C350.804 144.427 349.939 140.069 349.942 135.669L349.942 31.8546L193.041 188.637C198.997 183.663 206.516 180.948 214.276 180.97L304.76 180.97C309.145 180.966 313.488 181.827 317.541 183.503C321.593 185.179 325.275 187.638 328.376 190.739C331.477 193.84 333.936 197.522 335.612 201.574C337.288 205.627 338.149 209.97 338.145 214.355L338.145 316.518C338.126 317.228 338.165 317.938 338.263 318.641L497.524 159.381C491.224 165.649 482.699 169.17 473.812 169.173Z" fill="url(#paint0_linear)"/>
<path style="mix-blend-mode:multiply" opacity="0.2" d="M497.52 159.383L656.781 0.122975C656.117 0.0248287 655.446 -0.014707 654.775 0.00484941L540.697 0.00485439C531.828 0.0234861 523.329 3.56314 517.069 9.84571C510.808 16.1283 507.299 24.6396 507.311 33.5089L507.311 135.671C507.309 144.559 503.788 153.083 497.52 159.383Z" fill="url(#paint1_linear)"/>
</g>
<defs>
<linearGradient id="paint0_linear" x1="218.159" y1="301.132" x2="459.006" y2="60.2854" gradientUnits="userSpaceOnUse">
<stop offset="0.02703" stop-color="#4059D1"/>
<stop offset="1" stop-color="#4059D1" stop-opacity="0"/>
</linearGradient>
<linearGradient id="paint1_linear" x1="27517.4" y1="23888.5" x2="33063.4" y2="18346.8" gradientUnits="userSpaceOnUse">
<stop offset="0.02703" stop-color="#4059D1"/>
<stop offset="1" stop-color="#4059D1" stop-opacity="0"/>
</linearGradient>
</defs>
</svg>
